<svg width="20" height="20" viewBox="0 0 20 20" fill="none" xmlns="http://www.w3.org/2000/svg">
<g id="Outline/Devices/Desktop">
<circle id="Ellipse 5" cx="15" cy="6" r="5" fill="#74D5DC" fill-opacity="0.5"/>
<path id="Icon" fill-rule="evenodd" clip-rule="evenodd" d="M9.99994 3.12474L16.0613 3.29612C17.1323 3.3264 18.0182 4.13945 18.14 5.20394C18.4096 7.56029 18.4096 9.93969 18.14 12.296C18.0182 13.3605 17.1323 14.1736 16.0613 14.2039L11.4583 14.334V16.0417H14.1666C14.5118 16.0417 14.7916 16.3215 14.7916 16.6667C14.7916 17.0118 14.5118 17.2917 14.1666 17.2917H5.83328C5.48811 17.2917 5.20828 17.0118 5.20828 16.6667C5.20828 16.3215 5.48811 16.0417 5.83328 16.0417H8.54162V14.334L3.93858 14.2039C2.86756 14.1736 1.98171 13.3605 1.85992 12.296C1.59031 9.93969 1.59031 7.56029 1.85992 5.20394C1.98171 4.13944 2.86756 3.3264 3.93858 3.29612L9.99994 3.12474ZM9.99994 4.37524L3.97391 4.54562C3.52457 4.55832 3.15292 4.89943 3.10182 5.34604C2.84301 7.60796 2.84301 9.89202 3.10182 12.1539C3.15292 12.6005 3.52457 12.9417 3.97391 12.9544L9.99994 13.1247L16.026 12.9544C16.4753 12.9417 16.847 12.6005 16.8981 12.1539C17.1569 9.89202 17.1569 7.60796 16.8981 5.34604C16.847 4.89943 16.4753 4.55832 16.026 4.54562L9.99994 4.37524Z" fill="#303030"/>
</g>
</svg>
