<svg width="20" height="20" viewBox="0 0 20 20" fill="none" xmlns="http://www.w3.org/2000/svg">
<g id="Outline/Status/Notification-on">
<circle id="Ellipse 5" cx="7" cy="14" r="5" fill="#EFA87F" fill-opacity="0.5"/>
<g id="Icon">
<path d="M5.35737 2.01086C5.58434 1.75079 5.55751 1.35598 5.29745 1.12901C5.03738 0.902038 4.64257 0.928866 4.4156 1.18893L3.33909 2.4224C2.72846 3.12208 2.38326 4.01417 2.3639 4.94263L2.31667 7.20735C2.30947 7.55245 2.5834 7.83805 2.9285 7.84524C3.2736 7.85244 3.5592 7.57852 3.5664 7.23341L3.61363 4.9687C3.62688 4.33343 3.86306 3.72305 4.28086 3.24433L5.35737 2.01086Z" fill="#303030"/>
<path fill-rule="evenodd" clip-rule="evenodd" d="M5.19754 6.41734C5.31329 4.56673 6.84795 3.12505 8.70218 3.12505H9.16669V2.50005C9.16669 2.03982 9.53979 1.66672 10 1.66672C10.4603 1.66672 10.8334 2.03982 10.8334 2.50005V3.12505H11.2979C13.1521 3.12505 14.6868 4.56673 14.8025 6.41734L14.9867 9.36188C15.0569 10.4845 15.4338 11.5664 16.0763 12.4897C16.6569 13.3239 16.1401 14.4761 15.131 14.5972L12.2917 14.9379V15.8334C12.2917 17.099 11.2657 18.1251 10 18.1251C8.73437 18.1251 7.70836 17.099 7.70836 15.8334V14.9379L4.86909 14.5972C3.85998 14.4761 3.34313 13.3239 3.9237 12.4897C4.56625 11.5664 4.94315 10.4845 5.01337 9.36188L5.19754 6.41734ZM8.70218 4.37505C7.50801 4.37505 6.51965 5.30353 6.4451 6.49537L6.26093 9.43991C6.17644 10.7909 5.72289 12.0927 4.94969 13.2037C4.90772 13.264 4.94508 13.3473 5.01802 13.3561L8.13273 13.7298C9.37314 13.8787 10.6269 13.8787 11.8673 13.7298L14.982 13.3561C15.055 13.3473 15.0923 13.264 15.0504 13.2037C14.2772 12.0927 13.8236 10.7909 13.7391 9.43991L13.5549 6.49537C13.4804 5.30353 12.492 4.37505 11.2979 4.37505H8.70218ZM10 16.8751C9.42473 16.8751 8.95836 16.4087 8.95836 15.8334V15.2084H11.0417V15.8334C11.0417 16.4087 10.5753 16.8751 10 16.8751Z" fill="#303030"/>
<path d="M14.7026 1.12901C14.4425 1.35598 14.4157 1.75079 14.6427 2.01086L15.7192 3.24433C16.137 3.72305 16.3732 4.33343 16.3864 4.9687L16.4337 7.23341C16.4409 7.57852 16.7265 7.85244 17.0716 7.84524C17.4167 7.83805 17.6906 7.55245 17.6834 7.20735L17.6362 4.94263C17.6168 4.01417 17.2716 3.12208 16.661 2.4224L15.5845 1.18893C15.3575 0.928866 14.9627 0.902038 14.7026 1.12901Z" fill="#303030"/>
</g>
</g>
</svg>
