<svg width="20" height="20" viewBox="0 0 20 20" fill="none" xmlns="http://www.w3.org/2000/svg">
<g id="Outline/General/Shopping-basket">
<circle id="Ellipse 5" cx="12" cy="12" r="5" fill="#13CDC2" fill-opacity="0.3"/>
<g id="Icon">
<path d="M8.33331 11.0417C8.67849 11.0417 8.95831 11.3215 8.95831 11.6667V13.3333C8.95831 13.6785 8.67849 13.9583 8.33331 13.9583C7.98813 13.9583 7.70831 13.6785 7.70831 13.3333V11.6667C7.70831 11.3215 7.98813 11.0417 8.33331 11.0417Z" fill="#303030"/>
<path d="M12.2916 11.6667C12.2916 11.3215 12.0118 11.0417 11.6666 11.0417C11.3215 11.0417 11.0416 11.3215 11.0416 11.6667V13.3333C11.0416 13.6785 11.3215 13.9583 11.6666 13.9583C12.0118 13.9583 12.2916 13.6785 12.2916 13.3333V11.6667Z" fill="#303030"/>
<path fill-rule="evenodd" clip-rule="evenodd" d="M8.04124 2.8125C8.21383 2.51356 8.11141 2.13132 7.81248 1.95873C7.51354 1.78614 7.1313 1.88856 6.95871 2.1875L5.29205 5.07425C5.26708 5.1175 5.24786 5.16249 5.23417 5.20833H4.99998C3.73433 5.20833 2.70831 6.23435 2.70831 7.5C2.70831 8.21594 3.03662 8.8552 3.55089 9.27544L4.10667 13.096L4.47896 14.8403C4.70202 15.8854 5.55517 16.6792 6.61361 16.8265C8.86037 17.1391 11.1396 17.1391 13.3863 16.8265C14.4448 16.6792 15.2979 15.8854 15.521 14.8403L15.8933 13.096L16.4491 9.27544C16.9633 8.8552 17.2916 8.21594 17.2916 7.5C17.2916 6.23435 16.2656 5.20833 15 5.20833H14.7658C14.7521 5.16249 14.7329 5.1175 14.7079 5.07425L13.0412 2.1875C12.8687 1.88856 12.4864 1.78614 12.1875 1.95873C11.8885 2.13132 11.7861 2.51356 11.9587 2.8125L13.3419 5.20833H6.65801L8.04124 2.8125ZM15.1112 9.78901C15.0743 9.79077 15.0373 9.79167 15 9.79167H4.99998C4.96269 9.79167 4.92561 9.79077 4.88876 9.78901L5.33773 12.8754L5.70143 14.5794C5.81474 15.1103 6.24817 15.5136 6.78588 15.5884C8.91834 15.8851 11.0816 15.8851 13.2141 15.5884C13.7518 15.5136 14.1852 15.1103 14.2985 14.5794L14.6622 12.8754L15.1112 9.78901ZM3.95831 7.5C3.95831 6.9247 4.42468 6.45833 4.99998 6.45833H15C15.5753 6.45833 16.0416 6.9247 16.0416 7.5C16.0416 8.0753 15.5753 8.54167 15 8.54167H4.99998C4.42468 8.54167 3.95831 8.0753 3.95831 7.5Z" fill="#303030"/>
</g>
</g>
</svg>
